<?xml version="1.0" standalone="no"?><svg xmlns:xlink="http://www.w3.org/1999/xlink" xmlns="http://www.w3.org/2000/svg" viewBox="0 0 1000 538.4652767653205" preserveAspectRatio="xMaxYMax slice"><g transform="scale(0.9719589833309035)"><rect x="0" y="0" width="1028.857142857143" height="554" fill="#ffffff"/><rect x="0" y="0" width="79.14285714285714" height="79.14285714285714" fill="#ffffff"/><rect x="0" y="0" width="39.57" height="39.57" fill="#FF3565"/><path d="M 0 0 A 39.57 39.57 0 0 1 39.57 39.57 L 0 39.57" fill="#183FE1"/><rect x="39.57" y="0" width="39.57" height="39.57" fill="#183FE1"/><path d="M 39.57 39.57 A 39.57 39.57 0 0 1  79.14 0 L 79.14 39.57" fill="#FF3565"/><rect x="0" y="39.57" width="39.57" height="39.57" fill="#FF3565"/><path d="M 0 79.14 A 39.57 39.57 0 0 0 39.57 39.57 L 0 39.57" fill="#FF3565"/><rect x="39.57" y="39.57" width="39.57" height="39.57" fill="#808080"/><path d="M 39.57 39.57 A 39.57 39.57 0 0 0 79.14 79.14 L 79.14 39.57" fill="#183FE1"/><rect x="79.14285714285714" y="0" width="79.14285714285714" height="79.14285714285714" fill="#ffffff"/><rect x="79.14" y="0" width="39.57" height="39.57" fill="#183FE1"/><path d="M 79.14 0 A 39.57 39.57 0 0 1 118.71000000000001 39.57 L 79.14 39.57" fill="#808080"/><rect x="118.71" y="0" width="39.57" height="39.57" fill="#808080"/><path d="M 118.71 39.57 A 39.57 39.57 0 0 1  158.28 0 L 158.28 39.57" fill="#183FE1"/><rect x="79.14" y="39.57" width="39.57" height="39.57" fill="#2076df"/><path d="M 79.14 79.14 A 39.57 39.57 0 0 0 118.71000000000001 39.57 L 79.14 39.57" fill="#183FE1"/><rect x="118.71" y="39.57" width="39.57" height="39.57" fill="#2076df"/><path d="M 118.71 39.57 A 39.57 39.57 0 0 0 158.28 79.14 L 158.28 39.57" fill="#808080"/><rect x="158.28571428571428" y="0" width="79.14285714285714" height="79.14285714285714" fill="#ffffff"/><rect x="158.29" y="0" width="39.57" height="39.57" fill="#2076df"/><circle cx="178.075" cy="19.785" r="19.785" fill="#2076df"/><rect x="197.86" y="0" width="39.57" height="39.57" fill="#183FE1"/><rect x="197.86" y="0" width="39.57" height="39.57" fill="#808080"/><rect x="158.29" y="39.57" width="39.57" height="39.57" fill="#183FE1"/><circle cx="178.075" cy="59.355000000000004" r="19.785" fill="#183FE1"/><rect x="197.86" y="39.57" width="39.57" height="39.57" fill="#FF3565"/><rect x="197.86" y="39.57" width="39.57" height="39.57" fill="#183FE1"/><rect x="237.42857142857142" y="0" width="79.14285714285714" height="79.14285714285714" fill="#ffffff"/><rect x="237.43" y="0" width="39.57" height="39.57" fill="#808080"/><circle cx="257.21500000000003" cy="19.785" r="19.785" fill="#183FE1"/><rect x="277" y="0" width="39.57" height="39.57" fill="#2076df"/><rect x="277" y="0" width="39.57" height="39.57" fill="#2076df"/><rect x="237.43" y="39.57" width="39.57" height="39.57" fill="#808080"/><circle cx="257.21500000000003" cy="59.355000000000004" r="19.785" fill="#2076df"/><rect x="277" y="39.57" width="39.57" height="39.57" fill="#183FE1"/><rect x="277" y="39.57" width="39.57" height="39.57" fill="#808080"/><rect x="316.57142857142856" y="0" width="79.14285714285714" height="79.14285714285714" fill="#ffffff"/><rect x="316.57" y="0" width="39.57" height="39.57" fill="#FF3565"/><circle cx="336.355" cy="19.785" r="19.785" fill="#183FE1"/><rect x="356.14" y="0" width="39.57" height="39.57" fill="#FF3565"/><rect x="356.14" y="0" width="39.57" height="39.57" fill="#FF3565"/><rect x="316.57" y="39.57" width="39.57" height="39.57" fill="#2076df"/><circle cx="336.355" cy="59.355000000000004" r="19.785" fill="#808080"/><rect x="356.14" y="39.57" width="39.57" height="39.57" fill="#2076df"/><rect x="356.14" y="39.57" width="39.57" height="39.57" fill="#2076df"/><rect x="395.71" y="0" width="79.14" height="79.14" fill="#FF3565"/><polygon points="474.84999999999997,0 474.84999999999997,79.14 395.71,79.14" fill="#2076df"/><rect x="474.86" y="0" width="79.14" height="79.14" fill="#2076df"/><polygon points="474.86,0 554,0 474.86,79.14" fill="#2076df"/><rect x="554" y="0" width="79.14285714285714" height="79.14285714285714" fill="#ffffff"/><rect x="554" y="0" width="39.57" height="39.57" fill="#183FE1"/><polygon points="593.57,0 593.57,39.57 554,39.57" fill="#2076df"/><rect x="593.57" y="0" width="39.57" height="39.57" fill="#FF3565"/><polygon points="593.57,0 633.1400000000001,39.57 593.57,39.57" fill="#808080"/><rect x="554" y="39.57" width="39.57" height="39.57" fill="#2076df"/><polygon points="554,39.57 593.57,39.57 554,79.14" fill="#FF3565"/><rect x="593.57" y="39.57" width="39.57" height="39.57" fill="#183FE1"/><polygon points="593.57,39.57 633.1400000000001,39.57 633.1400000000001,79.14" fill="#183FE1"/><rect x="633.1428571428571" y="0" width="79.14285714285714" height="79.14285714285714" fill="#ffffff"/><rect x="633.14" y="0" width="39.57" height="39.57" fill="#2076df"/><polygon points="672.71,0 672.71,39.57 633.14,39.57" fill="#808080"/><rect x="672.71" y="0" width="39.57" height="39.57" fill="#808080"/><polygon points="672.71,0 712.2800000000001,39.57 672.71,39.57" fill="#2076df"/><rect x="633.14" y="39.57" width="39.57" height="39.57" fill="#2076df"/><polygon points="633.14,39.57 672.71,39.57 672.71,79.14" fill="#FF3565"/><rect x="672.71" y="39.57" width="39.57" height="39.57" fill="#183FE1"/><polygon points="672.71,39.57 712.2800000000001,39.57 672.71,79.14" fill="#2076df"/><rect x="712.2857142857142" y="0" width="79.14285714285714" height="79.14285714285714" fill="#ffffff"/><rect x="712.29" y="0" width="39.57" height="39.57" fill="#FF3565"/><polygon points="751.86,0 751.86,39.57 712.29,39.57" fill="#808080"/><rect x="751.86" y="0" width="39.57" height="39.57" fill="#808080"/><polygon points="751.86,0 791.4300000000001,39.57 751.86,39.57" fill="#FF3565"/><rect x="712.29" y="39.57" width="39.57" height="39.57" fill="#2076df"/><polygon points="712.29,39.57 751.86,39.57 751.86,79.14" fill="#183FE1"/><rect x="751.86" y="39.57" width="39.57" height="39.57" fill="#2076df"/><polygon points="751.86,39.57 791.4300000000001,39.57 751.86,79.14" fill="#808080"/><rect x="791.43" y="0" width="79.14" height="79.14" fill="#2076df"/><rect x="791.43" y="0" width="79.14" height="79.14" fill="#808080"/><rect x="870.57" y="0" width="79.14" height="79.14" fill="#FF3565"/><polygon points="949.71,0 949.71,79.14 870.57,79.14" fill="#808080"/><rect x="949.71" y="0" width="79.14" height="79.14" fill="#2076df"/><path d="M 949.71 0 A 79.14 79.14 0 0 1  1028.8500000000001 79.14 L 949.71 0 A 79.14 79.14 0 0 0 1028.8500000000001 79.14" fill="#FF3565"/><rect x="0" y="79.14" width="79.14" height="79.14" fill="#808080"/><path d="M 0 79.14 A 79.14 79.14 0 0 1 79.14 158.28 L 0 158.28" fill="#808080"/><rect x="79.14" y="79.14" width="79.14" height="79.14" fill="#2076df"/><polygon points="79.14,79.14 158.28,79.14 158.28,158.28" fill="#2076df"/><rect x="158.29" y="79.14" width="79.14" height="79.14" fill="#FF3565"/><path d="M 158.29 158.28 A 79.14 79.14 0 0 1  237.43 79.14 L 158.29 158.28 A 79.14 79.14 0 0 0 237.43 79.14" fill="#183FE1"/><rect x="237.43" y="79.14" width="79.14" height="79.14" fill="#FF3565"/><rect x="237.43" y="79.14" width="79.14" height="79.14" fill="#FF3565"/><rect x="316.57142857142856" y="79.14285714285714" width="79.14285714285714" height="79.14285714285714" fill="#ffffff"/><rect x="316.57" y="79.14" width="39.57" height="39.57" fill="#2076df"/><path d="M 316.57 79.14 A 39.57 39.57 0 0 0 356.14 118.71000000000001 L 356.14 79.14" fill="#FF3565"/><rect x="356.14" y="79.14" width="39.57" height="39.57" fill="#808080"/><path d="M 356.14 118.71000000000001 A 39.57 39.57 0 0 0 395.71 79.14 L 356.14 79.14" fill="#183FE1"/><rect x="316.57" y="118.71" width="39.57" height="39.57" fill="#2076df"/><path d="M 316.57 158.28 A 39.57 39.57 0 0 1  356.14 118.71 L 356.14 158.28" fill="#2076df"/><rect x="356.14" y="118.71" width="39.57" height="39.57" fill="#183FE1"/><path d="M 356.14 118.71 A 39.57 39.57 0 0 1 395.71 158.28 L 356.14 158.28" fill="#2076df"/><rect x="395.71428571428567" y="79.14285714285714" width="79.14285714285714" height="79.14285714285714" fill="#ffffff"/><rect x="395.71" y="79.14" width="39.57" height="39.57" fill="#183FE1"/><path d="M 395.71 79.14 A 39.57 39.57 0 0 1 435.28 118.71000000000001 L 395.71 118.71000000000001" fill="#183FE1"/><rect x="435.29" y="79.14" width="39.57" height="39.57" fill="#183FE1"/><path d="M 435.29 118.71000000000001 A 39.57 39.57 0 0 1  474.86 79.14 L 474.86 118.71000000000001" fill="#FF3565"/><rect x="395.71" y="118.71" width="39.57" height="39.57" fill="#183FE1"/><path d="M 395.71 158.28 A 39.57 39.57 0 0 0 435.28 118.71 L 395.71 118.71" fill="#183FE1"/><rect x="435.29" y="118.71" width="39.57" height="39.57" fill="#808080"/><path d="M 435.29 118.71 A 39.57 39.57 0 0 0 474.86 158.28 L 474.86 118.71" fill="#183FE1"/><rect x="474.86" y="79.14" width="79.14" height="79.14" fill="#2076df"/><path d="M 474.86 79.14 A 79.14 79.14 0 0 0 554 158.28 L 554 79.14" fill="#2076df"/><rect x="554" y="79.14" width="79.14" height="79.14" fill="#2076df"/><path d="M 554 158.28 A 79.14 79.14 0 0 1  633.14 79.14 L 554 158.28 A 79.14 79.14 0 0 0 633.14 79.14" fill="#183FE1"/><rect x="633.1428571428571" y="79.14285714285714" width="79.14285714285714" height="79.14285714285714" fill="#ffffff"/><rect x="633.14" y="79.14" width="39.57" height="39.57" fill="#183FE1"/><path d="M 633.14 79.14 A 39.57 39.57 0 0 1 672.71 118.71000000000001 L 633.14 118.71000000000001" fill="#183FE1"/><rect x="672.71" y="79.14" width="39.57" height="39.57" fill="#FF3565"/><path d="M 672.71 118.71000000000001 A 39.57 39.57 0 0 1  712.2800000000001 79.14 L 712.2800000000001 118.71000000000001" fill="#2076df"/><rect x="633.14" y="118.71" width="39.57" height="39.57" fill="#FF3565"/><path d="M 633.14 158.28 A 39.57 39.57 0 0 0 672.71 118.71 L 633.14 118.71" fill="#808080"/><rect x="672.71" y="118.71" width="39.57" height="39.57" fill="#2076df"/><path d="M 672.71 118.71 A 39.57 39.57 0 0 0 712.2800000000001 158.28 L 712.2800000000001 118.71" fill="#2076df"/><rect x="712.29" y="79.14" width="79.14" height="79.14" fill="#2076df"/><polygon points="712.29,79.14 791.43,79.14 712.29,158.28" fill="#2076df"/><rect x="791.43" y="79.14" width="79.14" height="79.14" fill="#2076df"/><polygon points="791.43,79.14 870.5699999999999,158.28 791.43,158.28" fill="#183FE1"/><rect x="870.5714285714286" y="79.14285714285714" width="79.14285714285714" height="79.14285714285714" fill="#ffffff"/><rect x="870.57" y="79.14" width="39.57" height="39.57" fill="#183FE1"/><polygon points="910.1400000000001,79.14 910.1400000000001,118.71000000000001 870.57,118.71000000000001" fill="#2076df"/><rect x="910.14" y="79.14" width="39.57" height="39.57" fill="#808080"/><polygon points="910.14,79.14 949.71,118.71000000000001 910.14,118.71000000000001" fill="#FF3565"/><rect x="870.57" y="118.71" width="39.57" height="39.57" fill="#808080"/><polygon points="870.57,118.71 910.1400000000001,118.71 910.1400000000001,158.28" fill="#FF3565"/><rect x="910.14" y="118.71" width="39.57" height="39.57" fill="#183FE1"/><polygon points="910.14,118.71 949.71,118.71 910.14,158.28" fill="#2076df"/><rect x="949.71" y="79.14" width="79.14" height="79.14" fill="#FF3565"/><polygon points="949.71,79.14 1028.8500000000001,79.14 1028.8500000000001,158.28" fill="#2076df"/><rect x="0" y="158.29" width="79.14" height="79.14" fill="#183FE1"/><polygon points="0,158.29 79.14,158.29 79.14,237.43" fill="#FF3565"/><rect x="79.14" y="158.29" width="79.14" height="79.14" fill="#2076df"/><rect x="79.14" y="158.29" width="79.14" height="79.14" fill="#2076df"/><rect x="158.28571428571428" y="158.28571428571428" width="79.14285714285714" height="79.14285714285714" fill="#ffffff"/><rect x="158.29" y="158.29" width="39.57" height="39.57" fill="#FF3565"/><path d="M 158.29 197.85999999999999 A 39.57 39.57 0 0 0 197.85999999999999 158.29 L 158.29 158.29" fill="#FF3565"/><rect x="197.86" y="158.29" width="39.57" height="39.57" fill="#183FE1"/><path d="M 197.86 158.29 A 39.57 39.57 0 0 0 237.43 197.85999999999999 L 237.43 158.29" fill="#183FE1"/><rect x="158.29" y="197.86" width="39.57" height="39.57" fill="#2076df"/><path d="M 158.29 197.86 A 39.57 39.57 0 0 1 197.85999999999999 237.43 L 158.29 237.43" fill="#808080"/><rect x="197.86" y="197.86" width="39.57" height="39.57" fill="#808080"/><path d="M 197.86 237.43 A 39.57 39.57 0 0 1  237.43 197.86 L 237.43 237.43" fill="#808080"/><rect x="237.43" y="158.29" width="79.14" height="79.14" fill="#FF3565"/><polygon points="237.43,158.29 316.57,158.29 316.57,237.43" fill="#183FE1"/><rect x="316.57" y="158.29" width="79.14" height="79.14" fill="#183FE1"/><polygon points="316.57,158.29 395.71,237.43 316.57,237.43" fill="#808080"/><rect x="395.71428571428567" y="158.28571428571428" width="79.14285714285714" height="79.14285714285714" fill="#ffffff"/><rect x="395.71" y="158.29" width="39.57" height="39.57" fill="#808080"/><path d="M 395.71 197.85999999999999 A 39.57 39.57 0 0 0 435.28 158.29 L 395.71 158.29" fill="#2076df"/><rect x="435.29" y="158.29" width="39.57" height="39.57" fill="#2076df"/><path d="M 435.29 158.29 A 39.57 39.57 0 0 0 474.86 197.85999999999999 L 474.86 158.29" fill="#183FE1"/><rect x="395.71" y="197.86" width="39.57" height="39.57" fill="#2076df"/><path d="M 395.71 197.86 A 39.57 39.57 0 0 1 435.28 237.43 L 395.71 237.43" fill="#808080"/><rect x="435.29" y="197.86" width="39.57" height="39.57" fill="#183FE1"/><path d="M 435.29 237.43 A 39.57 39.57 0 0 1  474.86 197.86 L 474.86 237.43" fill="#183FE1"/><rect x="474.86" y="158.29" width="79.14" height="79.14" fill="#808080"/><rect x="474.86" y="158.29" width="79.14" height="79.14" fill="#183FE1"/><rect x="554" y="158.29" width="79.14" height="79.14" fill="#FF3565"/><rect x="554" y="158.29" width="79.14" height="79.14" fill="#183FE1"/><rect x="633.1428571428571" y="158.28571428571428" width="79.14285714285714" height="79.14285714285714" fill="#ffffff"/><rect x="633.14" y="158.29" width="39.57" height="39.57" fill="#2076df"/><path d="M 633.14 197.85999999999999 A 39.57 39.57 0 0 0 672.71 158.29 L 633.14 158.29" fill="#FF3565"/><rect x="672.71" y="158.29" width="39.57" height="39.57" fill="#808080"/><path d="M 672.71 158.29 A 39.57 39.57 0 0 0 712.2800000000001 197.85999999999999 L 712.2800000000001 158.29" fill="#2076df"/><rect x="633.14" y="197.86" width="39.57" height="39.57" fill="#183FE1"/><path d="M 633.14 197.86 A 39.57 39.57 0 0 1 672.71 237.43 L 633.14 237.43" fill="#808080"/><rect x="672.71" y="197.86" width="39.57" height="39.57" fill="#808080"/><path d="M 672.71 237.43 A 39.57 39.57 0 0 1  712.2800000000001 197.86 L 712.2800000000001 237.43" fill="#183FE1"/><rect x="712.29" y="158.29" width="79.14" height="79.14" fill="#FF3565"/><rect x="712.29" y="158.29" width="79.14" height="79.14" fill="#183FE1"/><rect x="791.4285714285713" y="158.28571428571428" width="79.14285714285714" height="79.14285714285714" fill="#ffffff"/><rect x="791.43" y="158.29" width="39.57" height="39.57" fill="#183FE1"/><circle cx="811.2149999999999" cy="178.075" r="19.785" fill="#FF3565"/><rect x="831" y="158.29" width="39.57" height="39.57" fill="#FF3565"/><rect x="831" y="158.29" width="39.57" height="39.57" fill="#183FE1"/><rect x="791.43" y="197.86" width="39.57" height="39.57" fill="#808080"/><circle cx="811.2149999999999" cy="217.645" r="19.785" fill="#183FE1"/><rect x="831" y="197.86" width="39.57" height="39.57" fill="#808080"/><rect x="831" y="197.86" width="39.57" height="39.57" fill="#808080"/><rect x="870.5714285714286" y="158.28571428571428" width="79.14285714285714" height="79.14285714285714" fill="#ffffff"/><rect x="870.57" y="158.29" width="39.57" height="39.57" fill="#2076df"/><path d="M 870.57 197.85999999999999 A 39.57 39.57 0 0 1  910.1400000000001 158.29 L 910.1400000000001 197.85999999999999" fill="#808080"/><rect x="910.14" y="158.29" width="39.57" height="39.57" fill="#2076df"/><path d="M 910.14 158.29 A 39.57 39.57 0 0 1 949.71 197.85999999999999 L 910.14 197.85999999999999" fill="#FF3565"/><rect x="870.57" y="197.86" width="39.57" height="39.57" fill="#808080"/><path d="M 870.57 197.86 A 39.57 39.57 0 0 0 910.1400000000001 237.43 L 910.1400000000001 197.86" fill="#2076df"/><rect x="910.14" y="197.86" width="39.57" height="39.57" fill="#808080"/><path d="M 910.14 237.43 A 39.57 39.57 0 0 0 949.71 197.86 L 910.14 197.86" fill="#808080"/><rect x="949.71" y="158.29" width="79.14" height="79.14" fill="#183FE1"/><polygon points="949.71,158.29 1028.8500000000001,237.43 949.71,237.43" fill="#FF3565"/><rect x="0" y="237.42857142857142" width="79.14285714285714" height="79.14285714285714" fill="#ffffff"/><rect x="0" y="237.43" width="39.57" height="39.57" fill="#2076df"/><circle cx="19.785" cy="257.21500000000003" r="19.785" fill="#FF3565"/><rect x="39.57" y="237.43" width="39.57" height="39.57" fill="#183FE1"/><rect x="39.57" y="237.43" width="39.57" height="39.57" fill="#FF3565"/><rect x="0" y="277" width="39.57" height="39.57" fill="#2076df"/><circle cx="19.785" cy="296.785" r="19.785" fill="#FF3565"/><rect x="39.57" y="277" width="39.57" height="39.57" fill="#FF3565"/><rect x="39.57" y="277" width="39.57" height="39.57" fill="#183FE1"/><rect x="79.14" y="237.43" width="79.14" height="79.14" fill="#183FE1"/><path d="M 79.14 316.57 A 79.14 79.14 0 0 1  158.28 237.43 L 158.28 316.57" fill="#183FE1"/><rect x="158.28571428571428" y="237.42857142857142" width="79.14285714285714" height="79.14285714285714" fill="#ffffff"/><rect x="158.29" y="237.43" width="39.57" height="39.57" fill="#183FE1"/><polygon points="197.85999999999999,237.43 197.85999999999999,277 158.29,277" fill="#FF3565"/><rect x="197.86" y="237.43" width="39.57" height="39.57" fill="#183FE1"/><polygon points="197.86,237.43 237.43,277 197.86,277" fill="#183FE1"/><rect x="158.29" y="277" width="39.57" height="39.57" fill="#808080"/><polygon points="158.29,277 197.85999999999999,277 197.85999999999999,316.57" fill="#808080"/><rect x="197.86" y="277" width="39.57" height="39.57" fill="#183FE1"/><polygon points="197.86,277 237.43,277 197.86,316.57" fill="#183FE1"/><rect x="237.42857142857142" y="237.42857142857142" width="79.14285714285714" height="79.14285714285714" fill="#ffffff"/><rect x="237.43" y="237.43" width="39.57" height="39.57" fill="#808080"/><path d="M 237.43 277 A 39.57 39.57 0 0 1  277 237.43 L 277 277" fill="#FF3565"/><rect x="277" y="237.43" width="39.57" height="39.57" fill="#183FE1"/><path d="M 277 237.43 A 39.57 39.57 0 0 1 316.57 277 L 277 277" fill="#183FE1"/><rect x="237.43" y="277" width="39.57" height="39.57" fill="#FF3565"/><path d="M 237.43 277 A 39.57 39.57 0 0 0 277 316.57 L 277 277" fill="#FF3565"/><rect x="277" y="277" width="39.57" height="39.57" fill="#2076df"/><path d="M 277 316.57 A 39.57 39.57 0 0 0 316.57 277 L 277 277" fill="#183FE1"/><rect x="316.57142857142856" y="237.42857142857142" width="79.14285714285714" height="79.14285714285714" fill="#ffffff"/><rect x="316.57" y="237.43" width="39.57" height="39.57" fill="#808080"/><path d="M 316.57 277 A 39.57 39.57 0 0 1  356.14 237.43 L 356.14 277" fill="#183FE1"/><rect x="356.14" y="237.43" width="39.57" height="39.57" fill="#808080"/><path d="M 356.14 237.43 A 39.57 39.57 0 0 1 395.71 277 L 356.14 277" fill="#FF3565"/><rect x="316.57" y="277" width="39.57" height="39.57" fill="#808080"/><path d="M 316.57 277 A 39.57 39.57 0 0 0 356.14 316.57 L 356.14 277" fill="#2076df"/><rect x="356.14" y="277" width="39.57" height="39.57" fill="#FF3565"/><path d="M 356.14 316.57 A 39.57 39.57 0 0 0 395.71 277 L 356.14 277" fill="#183FE1"/><rect x="395.71" y="237.43" width="79.14" height="79.14" fill="#2076df"/><path d="M 395.71 316.57 A 79.14 79.14 0 0 1  474.84999999999997 237.43 L 395.71 316.57 A 79.14 79.14 0 0 0 474.84999999999997 237.43" fill="#2076df"/><rect x="474.85714285714283" y="237.42857142857142" width="79.14285714285714" height="79.14285714285714" fill="#ffffff"/><rect x="474.86" y="237.43" width="39.57" height="39.57" fill="#2076df"/><path d="M 474.86 237.43 A 39.57 39.57 0 0 0 514.4300000000001 277 L 514.4300000000001 237.43" fill="#FF3565"/><rect x="514.43" y="237.43" width="39.57" height="39.57" fill="#808080"/><path d="M 514.43 277 A 39.57 39.57 0 0 0 554 237.43 L 514.43 237.43" fill="#183FE1"/><rect x="474.86" y="277" width="39.57" height="39.57" fill="#FF3565"/><path d="M 474.86 316.57 A 39.57 39.57 0 0 1  514.4300000000001 277 L 514.4300000000001 316.57" fill="#183FE1"/><rect x="514.43" y="277" width="39.57" height="39.57" fill="#FF3565"/><path d="M 514.43 277 A 39.57 39.57 0 0 1 554 316.57 L 514.43 316.57" fill="#183FE1"/><rect x="554" y="237.43" width="79.14" height="79.14" fill="#FF3565"/><polygon points="554,237.43 633.14,237.43 554,316.57" fill="#808080"/><rect x="633.1428571428571" y="237.42857142857142" width="79.14285714285714" height="79.14285714285714" fill="#ffffff"/><rect x="633.14" y="237.43" width="39.57" height="39.57" fill="#183FE1"/><path d="M 633.14 277 A 39.57 39.57 0 0 1 672.71 237.43 L 672.71 247.32250000000002 A 29.677500000000002 29.677500000000002 0 0 0 643.0325 277" fill="#183FE1"/><rect x="672.71" y="237.43" width="39.57" height="39.57" fill="#2076df"/><path d="M 672.71 237.43 A 39.57 39.57 0 0 1 712.2800000000001 277 L 702.3875 277 A 29.677500000000002 29.677500000000002 0 0 0 672.71 247.32250000000002" fill="#2076df"/><rect x="633.14" y="277" width="39.57" height="39.57" fill="#808080"/><path d="M 633.14 277 A 39.57 39.57 0 0 0 672.71 316.57 L 672.71 306.6775 A 29.677500000000002 29.677500000000002 0 0 1 643.0325 277" fill="#808080"/><rect x="672.71" y="277" width="39.57" height="39.57" fill="#183FE1"/><path d="M 672.71 316.57 A 39.57 39.57 0 0 0 712.2800000000001 277 L 702.3875 277 A 29.677500000000002 29.677500000000002 0 0 1 672.71 306.6775" fill="#183FE1"/><rect x="712.29" y="237.43" width="79.14" height="79.14" fill="#183FE1"/><path d="M 712.29 316.57 A 79.14 79.14 0 0 1  791.43 237.43 L 712.29 316.57 A 79.14 79.14 0 0 0 791.43 237.43" fill="#808080"/><rect x="791.43" y="237.43" width="79.14" height="79.14" fill="#808080"/><path d="M 791.43 316.57 A 79.14 79.14 0 0 1  870.5699999999999 237.43 L 791.43 316.57 A 79.14 79.14 0 0 0 870.5699999999999 237.43" fill="#808080"/><rect x="870.57" y="237.43" width="79.14" height="79.14" fill="#808080"/><path d="M 870.57 316.57 A 79.14 79.14 0 0 1  949.71 237.43 L 870.57 316.57 A 79.14 79.14 0 0 0 949.71 237.43" fill="#808080"/><rect x="949.71" y="237.43" width="79.14" height="79.14" fill="#183FE1"/><rect x="949.71" y="237.43" width="79.14" height="79.14" fill="#808080"/><rect x="0" y="316.57142857142856" width="79.14285714285714" height="79.14285714285714" fill="#ffffff"/><rect x="0" y="316.57" width="39.57" height="39.57" fill="#FF3565"/><circle cx="19.785" cy="336.355" r="19.785" fill="#808080"/><rect x="39.57" y="316.57" width="39.57" height="39.57" fill="#183FE1"/><rect x="39.57" y="316.57" width="39.57" height="39.57" fill="#FF3565"/><rect x="0" y="356.14" width="39.57" height="39.57" fill="#183FE1"/><circle cx="19.785" cy="375.925" r="19.785" fill="#FF3565"/><rect x="39.57" y="356.14" width="39.57" height="39.57" fill="#808080"/><rect x="39.57" y="356.14" width="39.57" height="39.57" fill="#808080"/><rect x="79.14" y="316.57" width="79.14" height="79.14" fill="#FF3565"/><rect x="79.14" y="316.57" width="79.14" height="79.14" fill="#183FE1"/><rect x="158.28571428571428" y="316.57142857142856" width="79.14285714285714" height="79.14285714285714" fill="#ffffff"/><rect x="158.29" y="316.57" width="39.57" height="39.57" fill="#FF3565"/><circle cx="178.075" cy="336.355" r="19.785" fill="#FF3565"/><rect x="197.86" y="316.57" width="39.57" height="39.57" fill="#2076df"/><rect x="197.86" y="316.57" width="39.57" height="39.57" fill="#FF3565"/><rect x="158.29" y="356.14" width="39.57" height="39.57" fill="#2076df"/><circle cx="178.075" cy="375.925" r="19.785" fill="#FF3565"/><rect x="197.86" y="356.14" width="39.57" height="39.57" fill="#183FE1"/><rect x="197.86" y="356.14" width="39.57" height="39.57" fill="#2076df"/><rect x="237.43" y="316.57" width="79.14" height="79.14" fill="#183FE1"/><rect x="237.43" y="316.57" width="79.14" height="79.14" fill="#2076df"/><rect x="316.57" y="316.57" width="79.14" height="79.14" fill="#808080"/><path d="M 316.57 316.57 A 79.14 79.14 0 0 1  395.71 395.71 L 316.57 316.57 A 79.14 79.14 0 0 0 395.71 395.71" fill="#808080"/><rect x="395.71428571428567" y="316.57142857142856" width="79.14285714285714" height="79.14285714285714" fill="#ffffff"/><rect x="395.71" y="316.57" width="39.57" height="39.57" fill="#FF3565"/><path d="M 395.71 316.57 A 39.57 39.57 0 0 0 435.28 356.14 L 435.28 316.57" fill="#2076df"/><rect x="435.29" y="316.57" width="39.57" height="39.57" fill="#808080"/><path d="M 435.29 356.14 A 39.57 39.57 0 0 0 474.86 316.57 L 435.29 316.57" fill="#FF3565"/><rect x="395.71" y="356.14" width="39.57" height="39.57" fill="#183FE1"/><path d="M 395.71 395.71 A 39.57 39.57 0 0 1  435.28 356.14 L 435.28 395.71" fill="#808080"/><rect x="435.29" y="356.14" width="39.57" height="39.57" fill="#FF3565"/><path d="M 435.29 356.14 A 39.57 39.57 0 0 1 474.86 395.71 L 435.29 395.71" fill="#FF3565"/><rect x="474.86" y="316.57" width="79.14" height="79.14" fill="#FF3565"/><polygon points="554,316.57 554,395.71 474.86,395.71" fill="#FF3565"/><rect x="554" y="316.57" width="79.14" height="79.14" fill="#FF3565"/><polygon points="554,316.57 633.14,395.71 554,395.71" fill="#183FE1"/><rect x="633.1428571428571" y="316.57142857142856" width="79.14285714285714" height="79.14285714285714" fill="#ffffff"/><rect x="633.14" y="316.57" width="39.57" height="39.57" fill="#183FE1"/><path d="M 633.14 356.14 A 39.57 39.57 0 0 1  672.71 316.57 L 672.71 356.14" fill="#183FE1"/><rect x="672.71" y="316.57" width="39.57" height="39.57" fill="#FF3565"/><path d="M 672.71 316.57 A 39.57 39.57 0 0 1 712.2800000000001 356.14 L 672.71 356.14" fill="#808080"/><rect x="633.14" y="356.14" width="39.57" height="39.57" fill="#2076df"/><path d="M 633.14 356.14 A 39.57 39.57 0 0 0 672.71 395.71 L 672.71 356.14" fill="#808080"/><rect x="672.71" y="356.14" width="39.57" height="39.57" fill="#FF3565"/><path d="M 672.71 395.71 A 39.57 39.57 0 0 0 712.2800000000001 356.14 L 672.71 356.14" fill="#808080"/><rect x="712.2857142857142" y="316.57142857142856" width="79.14285714285714" height="79.14285714285714" fill="#ffffff"/><rect x="712.29" y="316.57" width="39.57" height="39.57" fill="#FF3565"/><polygon points="751.86,316.57 751.86,356.14 712.29,356.14" fill="#FF3565"/><rect x="751.86" y="316.57" width="39.57" height="39.57" fill="#183FE1"/><polygon points="751.86,316.57 791.4300000000001,356.14 751.86,356.14" fill="#2076df"/><rect x="712.29" y="356.14" width="39.57" height="39.57" fill="#183FE1"/><polygon points="712.29,356.14 751.86,356.14 712.29,395.71" fill="#808080"/><rect x="751.86" y="356.14" width="39.57" height="39.57" fill="#2076df"/><polygon points="751.86,356.14 791.4300000000001,356.14 791.4300000000001,395.71" fill="#2076df"/><rect x="791.43" y="316.57" width="79.14" height="79.14" fill="#808080"/><path d="M 791.43 395.71 A 79.14 79.14 0 0 0 870.5699999999999 316.57 L 791.43 316.57" fill="#183FE1"/><rect x="870.5714285714286" y="316.57142857142856" width="79.14285714285714" height="79.14285714285714" fill="#ffffff"/><rect x="870.57" y="316.57" width="39.57" height="39.57" fill="#183FE1"/><path d="M 870.57 356.14 A 39.57 39.57 0 0 0 910.1400000000001 316.57 L 870.57 316.57" fill="#183FE1"/><rect x="910.14" y="316.57" width="39.57" height="39.57" fill="#2076df"/><path d="M 910.14 316.57 A 39.57 39.57 0 0 0 949.71 356.14 L 949.71 316.57" fill="#808080"/><rect x="870.57" y="356.14" width="39.57" height="39.57" fill="#183FE1"/><path d="M 870.57 356.14 A 39.57 39.57 0 0 1 910.1400000000001 395.71 L 870.57 395.71" fill="#2076df"/><rect x="910.14" y="356.14" width="39.57" height="39.57" fill="#183FE1"/><path d="M 910.14 395.71 A 39.57 39.57 0 0 1  949.71 356.14 L 949.71 395.71" fill="#808080"/><rect x="949.71" y="316.57" width="79.14" height="79.14" fill="#FF3565"/><path d="M 949.71 395.71 A 79.14 79.14 0 0 1  1028.8500000000001 316.57 L 949.71 395.71 A 79.14 79.14 0 0 0 1028.8500000000001 316.57" fill="#183FE1"/><rect x="0" y="395.71428571428567" width="79.14285714285714" height="79.14285714285714" fill="#ffffff"/><rect x="0" y="395.71" width="39.57" height="39.57" fill="#183FE1"/><path d="M 0 435.28 A 39.57 39.57 0 0 0 39.57 395.71 L 0 395.71" fill="#FF3565"/><rect x="39.57" y="395.71" width="39.57" height="39.57" fill="#FF3565"/><path d="M 39.57 395.71 A 39.57 39.57 0 0 0 79.14 435.28 L 79.14 395.71" fill="#2076df"/><rect x="0" y="435.29" width="39.57" height="39.57" fill="#FF3565"/><path d="M 0 435.29 A 39.57 39.57 0 0 1 39.57 474.86 L 0 474.86" fill="#808080"/><rect x="39.57" y="435.29" width="39.57" height="39.57" fill="#2076df"/><path d="M 39.57 474.86 A 39.57 39.57 0 0 1  79.14 435.29 L 79.14 474.86" fill="#2076df"/><rect x="79.14" y="395.71" width="79.14" height="79.14" fill="#183FE1"/><rect x="79.14" y="395.71" width="79.14" height="79.14" fill="#183FE1"/><rect x="158.28571428571428" y="395.71428571428567" width="79.14285714285714" height="79.14285714285714" fill="#ffffff"/><rect x="158.29" y="395.71" width="39.57" height="39.57" fill="#FF3565"/><path d="M 158.29 395.71 A 39.57 39.57 0 0 0 197.85999999999999 435.28 L 197.85999999999999 395.71" fill="#808080"/><rect x="197.86" y="395.71" width="39.57" height="39.57" fill="#FF3565"/><path d="M 197.86 435.28 A 39.57 39.57 0 0 0 237.43 395.71 L 197.86 395.71" fill="#2076df"/><rect x="158.29" y="435.29" width="39.57" height="39.57" fill="#FF3565"/><path d="M 158.29 474.86 A 39.57 39.57 0 0 1  197.85999999999999 435.29 L 197.85999999999999 474.86" fill="#183FE1"/><rect x="197.86" y="435.29" width="39.57" height="39.57" fill="#FF3565"/><path d="M 197.86 435.29 A 39.57 39.57 0 0 1 237.43 474.86 L 197.86 474.86" fill="#808080"/><rect x="237.42857142857142" y="395.71428571428567" width="79.14285714285714" height="79.14285714285714" fill="#ffffff"/><rect x="237.43" y="395.71" width="39.57" height="39.57" fill="#FF3565"/><path d="M 237.43 395.71 A 39.57 39.57 0 0 0 277 435.28 L 277 395.71" fill="#2076df"/><rect x="277" y="395.71" width="39.57" height="39.57" fill="#2076df"/><path d="M 277 435.28 A 39.57 39.57 0 0 0 316.57 395.71 L 277 395.71" fill="#FF3565"/><rect x="237.43" y="435.29" width="39.57" height="39.57" fill="#183FE1"/><path d="M 237.43 474.86 A 39.57 39.57 0 0 1  277 435.29 L 277 474.86" fill="#FF3565"/><rect x="277" y="435.29" width="39.57" height="39.57" fill="#183FE1"/><path d="M 277 435.29 A 39.57 39.57 0 0 1 316.57 474.86 L 277 474.86" fill="#2076df"/><rect x="316.57142857142856" y="395.71428571428567" width="79.14285714285714" height="79.14285714285714" fill="#ffffff"/><rect x="316.57" y="395.71" width="39.57" height="39.57" fill="#2076df"/><polygon points="356.14,395.71 356.14,435.28 316.57,435.28" fill="#808080"/><rect x="356.14" y="395.71" width="39.57" height="39.57" fill="#183FE1"/><polygon points="356.14,395.71 395.71,395.71 356.14,435.28" fill="#FF3565"/><rect x="316.57" y="435.29" width="39.57" height="39.57" fill="#183FE1"/><polygon points="316.57,435.29 356.14,435.29 356.14,474.86" fill="#808080"/><rect x="356.14" y="435.29" width="39.57" height="39.57" fill="#2076df"/><polygon points="356.14,435.29 395.71,474.86 356.14,474.86" fill="#2076df"/><rect x="395.71" y="395.71" width="79.14" height="79.14" fill="#2076df"/><rect x="395.71" y="395.71" width="79.14" height="79.14" fill="#183FE1"/><rect x="474.85714285714283" y="395.71428571428567" width="79.14285714285714" height="79.14285714285714" fill="#ffffff"/><rect x="474.86" y="395.71" width="39.57" height="39.57" fill="#183FE1"/><circle cx="494.64500000000004" cy="415.495" r="19.785" fill="#FF3565"/><rect x="514.43" y="395.71" width="39.57" height="39.57" fill="#2076df"/><rect x="514.43" y="395.71" width="39.57" height="39.57" fill="#FF3565"/><rect x="474.86" y="435.29" width="39.57" height="39.57" fill="#2076df"/><circle cx="494.64500000000004" cy="455.07500000000005" r="19.785" fill="#808080"/><rect x="514.43" y="435.29" width="39.57" height="39.57" fill="#183FE1"/><rect x="514.43" y="435.29" width="39.57" height="39.57" fill="#2076df"/><rect x="554" y="395.71" width="79.14" height="79.14" fill="#808080"/><polygon points="554,395.71 633.14,395.71 633.14,474.84999999999997" fill="#183FE1"/><rect x="633.14" y="395.71" width="79.14" height="79.14" fill="#183FE1"/><path d="M 633.14 395.71 A 79.14 79.14 0 0 0 712.28 474.84999999999997 L 712.28 395.71" fill="#FF3565"/><rect x="712.29" y="395.71" width="79.14" height="79.14" fill="#183FE1"/><rect x="712.29" y="395.71" width="79.14" height="79.14" fill="#2076df"/><rect x="791.43" y="395.71" width="79.14" height="79.14" fill="#FF3565"/><path d="M 791.43 395.71 A 79.14 79.14 0 0 1 870.5699999999999 474.84999999999997 L 791.43 474.84999999999997" fill="#FF3565"/><rect x="870.57" y="395.71" width="79.14" height="79.14" fill="#2076df"/><polygon points="949.71,395.71 949.71,474.84999999999997 870.57,474.84999999999997" fill="#FF3565"/><rect x="949.71" y="395.71" width="79.14" height="79.14" fill="#808080"/><path d="M 949.71 395.71 A 79.14 79.14 0 0 1 1028.8500000000001 474.84999999999997 L 949.71 474.84999999999997" fill="#808080"/><rect x="0" y="474.85714285714283" width="79.14285714285714" height="79.14285714285714" fill="#ffffff"/><rect x="0" y="474.86" width="39.57" height="39.57" fill="#2076df"/><path d="M 0 514.4300000000001 A 39.57 39.57 0 0 1 39.57 474.86 L 39.57 484.7525 A 29.677500000000002 29.677500000000002 0 0 0 9.8925 514.4300000000001" fill="#183FE1"/><rect x="39.57" y="474.86" width="39.57" height="39.57" fill="#808080"/><path d="M 39.57 474.86 A 39.57 39.57 0 0 1 79.14 514.4300000000001 L 69.2475 514.4300000000001 A 29.677500000000002 29.677500000000002 0 0 0 39.57 484.7525" fill="#808080"/><rect x="0" y="514.43" width="39.57" height="39.57" fill="#2076df"/><path d="M 0 514.43 A 39.57 39.57 0 0 0 39.57 554 L 39.57 544.1075 A 29.677500000000002 29.677500000000002 0 0 1 9.8925 514.43" fill="#183FE1"/><rect x="39.57" y="514.43" width="39.57" height="39.57" fill="#2076df"/><path d="M 39.57 554 A 39.57 39.57 0 0 0 79.14 514.43 L 69.2475 514.43 A 29.677500000000002 29.677500000000002 0 0 1 39.57 544.1075" fill="#FF3565"/><rect x="79.14285714285714" y="474.85714285714283" width="79.14285714285714" height="79.14285714285714" fill="#ffffff"/><rect x="79.14" y="474.86" width="39.57" height="39.57" fill="#FF3565"/><polygon points="118.71000000000001,474.86 118.71000000000001,514.4300000000001 79.14,514.4300000000001" fill="#808080"/><rect x="118.71" y="474.86" width="39.57" height="39.57" fill="#2076df"/><polygon points="118.71,474.86 158.28,474.86 118.71,514.4300000000001" fill="#183FE1"/><rect x="79.14" y="514.43" width="39.57" height="39.57" fill="#FF3565"/><polygon points="79.14,514.43 118.71000000000001,514.43 118.71000000000001,554" fill="#2076df"/><rect x="118.71" y="514.43" width="39.57" height="39.57" fill="#FF3565"/><polygon points="118.71,514.43 158.28,554 118.71,554" fill="#808080"/><rect x="158.28571428571428" y="474.85714285714283" width="79.14285714285714" height="79.14285714285714" fill="#ffffff"/><rect x="158.29" y="474.86" width="39.57" height="39.57" fill="#808080"/><path d="M 158.29 474.86 A 39.57 39.57 0 0 1 197.85999999999999 514.4300000000001 L 158.29 514.4300000000001" fill="#FF3565"/><rect x="197.86" y="474.86" width="39.57" height="39.57" fill="#FF3565"/><path d="M 197.86 514.4300000000001 A 39.57 39.57 0 0 1  237.43 474.86 L 237.43 514.4300000000001" fill="#808080"/><rect x="158.29" y="514.43" width="39.57" height="39.57" fill="#FF3565"/><path d="M 158.29 554 A 39.57 39.57 0 0 0 197.85999999999999 514.43 L 158.29 514.43" fill="#FF3565"/><rect x="197.86" y="514.43" width="39.57" height="39.57" fill="#808080"/><path d="M 197.86 514.43 A 39.57 39.57 0 0 0 237.43 554 L 237.43 514.43" fill="#2076df"/><rect x="237.43" y="474.86" width="79.14" height="79.14" fill="#808080"/><path d="M 237.43 554 A 79.14 79.14 0 0 1  316.57 474.86 L 316.57 554" fill="#FF3565"/><rect x="316.57" y="474.86" width="79.14" height="79.14" fill="#2076df"/><polygon points="316.57,474.86 395.71,554 316.57,554" fill="#808080"/><rect x="395.71" y="474.86" width="79.14" height="79.14" fill="#183FE1"/><polygon points="395.71,474.86 474.84999999999997,474.86 474.84999999999997,554" fill="#2076df"/><rect x="474.86" y="474.86" width="79.14" height="79.14" fill="#2076df"/><polygon points="474.86,474.86 554,474.86 474.86,554" fill="#183FE1"/><rect x="554" y="474.85714285714283" width="79.14285714285714" height="79.14285714285714" fill="#ffffff"/><rect x="554" y="474.86" width="39.57" height="39.57" fill="#2076df"/><circle cx="573.785" cy="494.64500000000004" r="19.785" fill="#808080"/><rect x="593.57" y="474.86" width="39.57" height="39.57" fill="#FF3565"/><rect x="593.57" y="474.86" width="39.57" height="39.57" fill="#183FE1"/><rect x="554" y="514.43" width="39.57" height="39.57" fill="#183FE1"/><circle cx="573.785" cy="534.2149999999999" r="19.785" fill="#FF3565"/><rect x="593.57" y="514.43" width="39.57" height="39.57" fill="#2076df"/><rect x="593.57" y="514.43" width="39.57" height="39.57" fill="#183FE1"/><rect x="633.1428571428571" y="474.85714285714283" width="79.14285714285714" height="79.14285714285714" fill="#ffffff"/><rect x="633.14" y="474.86" width="39.57" height="39.57" fill="#808080"/><path d="M 633.14 474.86 A 39.57 39.57 0 0 1 672.71 514.4300000000001 L 633.14 514.4300000000001" fill="#FF3565"/><rect x="672.71" y="474.86" width="39.57" height="39.57" fill="#183FE1"/><path d="M 672.71 514.4300000000001 A 39.57 39.57 0 0 1  712.2800000000001 474.86 L 712.2800000000001 514.4300000000001" fill="#808080"/><rect x="633.14" y="514.43" width="39.57" height="39.57" fill="#808080"/><path d="M 633.14 554 A 39.57 39.57 0 0 0 672.71 514.43 L 633.14 514.43" fill="#808080"/><rect x="672.71" y="514.43" width="39.57" height="39.57" fill="#2076df"/><path d="M 672.71 514.43 A 39.57 39.57 0 0 0 712.2800000000001 554 L 712.2800000000001 514.43" fill="#FF3565"/><rect x="712.2857142857142" y="474.85714285714283" width="79.14285714285714" height="79.14285714285714" fill="#ffffff"/><rect x="712.29" y="474.86" width="39.57" height="39.57" fill="#2076df"/><polygon points="751.86,474.86 751.86,514.4300000000001 712.29,514.4300000000001" fill="#FF3565"/><rect x="751.86" y="474.86" width="39.57" height="39.57" fill="#808080"/><polygon points="751.86,474.86 791.4300000000001,514.4300000000001 751.86,514.4300000000001" fill="#2076df"/><rect x="712.29" y="514.43" width="39.57" height="39.57" fill="#2076df"/><polygon points="712.29,514.43 751.86,514.43 712.29,554" fill="#808080"/><rect x="751.86" y="514.43" width="39.57" height="39.57" fill="#2076df"/><polygon points="751.86,514.43 791.4300000000001,514.43 791.4300000000001,554" fill="#808080"/><rect x="791.4285714285713" y="474.85714285714283" width="79.14285714285714" height="79.14285714285714" fill="#ffffff"/><rect x="791.43" y="474.86" width="39.57" height="39.57" fill="#808080"/><path d="M 791.43 514.4300000000001 A 39.57 39.57 0 0 1 831 474.86 L 831 484.7525 A 29.677500000000002 29.677500000000002 0 0 0 801.3225 514.4300000000001" fill="#808080"/><rect x="831" y="474.86" width="39.57" height="39.57" fill="#2076df"/><path d="M 831 474.86 A 39.57 39.57 0 0 1 870.57 514.4300000000001 L 860.6775 514.4300000000001 A 29.677500000000002 29.677500000000002 0 0 0 831 484.7525" fill="#FF3565"/><rect x="791.43" y="514.43" width="39.57" height="39.57" fill="#FF3565"/><path d="M 791.43 514.43 A 39.57 39.57 0 0 0 831 554 L 831 544.1075 A 29.677500000000002 29.677500000000002 0 0 1 801.3225 514.43" fill="#183FE1"/><rect x="831" y="514.43" width="39.57" height="39.57" fill="#FF3565"/><path d="M 831 554 A 39.57 39.57 0 0 0 870.57 514.43 L 860.6775 514.43 A 29.677500000000002 29.677500000000002 0 0 1 831 544.1075" fill="#183FE1"/><rect x="870.5714285714286" y="474.85714285714283" width="79.14285714285714" height="79.14285714285714" fill="#ffffff"/><rect x="870.57" y="474.86" width="39.57" height="39.57" fill="#808080"/><path d="M 870.57 514.4300000000001 A 39.57 39.57 0 0 1  910.1400000000001 474.86 L 910.1400000000001 514.4300000000001" fill="#FF3565"/><rect x="910.14" y="474.86" width="39.57" height="39.57" fill="#183FE1"/><path d="M 910.14 474.86 A 39.57 39.57 0 0 1 949.71 514.4300000000001 L 910.14 514.4300000000001" fill="#808080"/><rect x="870.57" y="514.43" width="39.57" height="39.57" fill="#808080"/><path d="M 870.57 514.43 A 39.57 39.57 0 0 0 910.1400000000001 554 L 910.1400000000001 514.43" fill="#FF3565"/><rect x="910.14" y="514.43" width="39.57" height="39.57" fill="#808080"/><path d="M 910.14 554 A 39.57 39.57 0 0 0 949.71 514.43 L 910.14 514.43" fill="#808080"/><rect x="949.7142857142857" y="474.85714285714283" width="79.14285714285714" height="79.14285714285714" fill="#ffffff"/><rect x="949.71" y="474.86" width="39.57" height="39.57" fill="#2076df"/><path d="M 949.71 474.86 A 39.57 39.57 0 0 1 989.2800000000001 514.4300000000001 L 949.71 514.4300000000001" fill="#183FE1"/><rect x="989.29" y="474.86" width="39.57" height="39.57" fill="#FF3565"/><path d="M 989.29 514.4300000000001 A 39.57 39.57 0 0 1  1028.86 474.86 L 1028.86 514.4300000000001" fill="#183FE1"/><rect x="949.71" y="514.43" width="39.57" height="39.57" fill="#183FE1"/><path d="M 949.71 554 A 39.57 39.57 0 0 0 989.2800000000001 514.43 L 949.71 514.43" fill="#808080"/><rect x="989.29" y="514.43" width="39.57" height="39.57" fill="#183FE1"/><path d="M 989.29 514.43 A 39.57 39.57 0 0 0 1028.86 554 L 1028.86 514.43" fill="#2076df"/></g></svg>